<svg width="680" height="425" viewBox="0 0 680 425" xmlns="http://www.w3.org/2000/svg">
  <defs><marker id="cotarrow" viewBox="0 0 10 10" refX="8" refY="5" markerWidth="6" markerHeight="6" orient="auto-start-reverse"><path d="M2 1L8 5L2 9" fill="none" stroke="#2E8BC0" stroke-width="1.5" stroke-linecap="round" stroke-linejoin="round"/></marker></defs>
  <rect x="0" y="0" width="680" height="425" fill="#0D0D0D"/>

  <text x="48" y="206" fill="#F0EDE8" font-family="Georgia, 'Times New Roman', serif" font-size="72" font-weight="500">#1 PH</text>
  <text x="50" y="238" fill="rgba(230,242,255,0.6)" font-family="'Courier New', monospace" font-size="14" letter-spacing="2">23.1% VOL SHARE</text>
  <text x="50" y="262" fill="rgba(230,242,255,0.45)" font-family="'Courier New', monospace" font-size="13" letter-spacing="2">+7PTS VS PY</text>

  <circle cx="498" cy="213" r="120" fill="none" stroke="#1E6BB8" stroke-width="0.75" opacity="0.5"/>
  <path d="M498 93 A120 120 0 0 1 618 213" fill="none" stroke="#2E8BC0" stroke-width="2" marker-end="url(#cotarrow)"/>
  <path d="M618 213 A120 120 0 0 1 498 333" fill="none" stroke="#2E8BC0" stroke-width="2" marker-end="url(#cotarrow)"/>
  <path d="M498 333 A120 120 0 0 1 378 213" fill="none" stroke="#2E8BC0" stroke-width="2" marker-end="url(#cotarrow)"/>
  <path d="M378 213 A120 120 0 0 1 498 93" fill="none" stroke="#2E8BC0" stroke-width="2" marker-end="url(#cotarrow)"/>

  <circle cx="498" cy="93" r="6" fill="#E6F2FF"/>
  <circle cx="618" cy="213" r="6" fill="#E6F2FF"/>
  <circle cx="498" cy="333" r="6" fill="#E6F2FF"/>
  <circle cx="378" cy="213" r="6" fill="#E6F2FF"/>

  <text x="498" y="76" fill="#E6F2FF" font-family="'Courier New', monospace" font-size="12" text-anchor="middle" letter-spacing="1">DISCOVER</text>
  <text x="634" y="217" fill="#E6F2FF" font-family="'Courier New', monospace" font-size="12" text-anchor="start" letter-spacing="1">ENGAGE</text>
  <text x="498" y="356" fill="#E6F2FF" font-family="'Courier New', monospace" font-size="12" text-anchor="middle" letter-spacing="1">PURCHASE</text>
  <text x="362" y="217" fill="#E6F2FF" font-family="'Courier New', monospace" font-size="12" text-anchor="end" letter-spacing="1">ADVOCATE</text>

  <text x="498" y="210" fill="#2E8BC0" font-family="'Courier New', monospace" font-size="13" text-anchor="middle" letter-spacing="2">TRUST</text>
  <text x="498" y="228" fill="rgba(230,242,255,0.5)" font-family="'Courier New', monospace" font-size="10" text-anchor="middle" letter-spacing="1">B2B2C</text>
</svg>
